<svg height="512pt" viewBox="0 -36 512.0007 512" width="512pt" xmlns="http://www.w3.org/2000/svg"><path d="m381.621094 127.417969c0-41.617188-14.070313-67.65625-23.863282-80.742188-.867187-1.15625-1.222656-2.449219-1.199218-3.699219-25.1875-21.753906-58.09375-35.464843-100.476563-35.464843-42.378906 0-75.289062 13.710937-100.476562 35.464843.023437 1.253907-.335938 2.542969-1.199219 3.699219-9.792969 13.085938-23.863281 39.125-23.863281 80.742188 0 40.105469 16.089843 142.464843 7.683593 217.292969 30.878907 20.011718 72.304688 29.242187 117.855469 29.242187s86.976563-9.230469 117.855469-29.242187c-8.40625-74.828126 7.683594-177.191407 7.683594-217.292969zm0 0" fill="#e4e3e1"/><path d="m162.367188 322.070312c3.617187-71.597656-9.484376-158.46875-9.484376-194.652343 0-75.457031 43.09375-115.347657 114.367188-119.574219-41.714844-2.472656-80.421875 8.167969-111.644531 35.132812.023437 1.253907-.335938 2.542969-1.199219 3.699219-9.792969 13.085938-23.863281 39.125-23.863281 80.742188 0 40.105469 16.089843 142.464843 7.683593 217.292969 30.878907 20.011718 72.304688 29.242187 117.855469 29.242187 3.753907 0 7.476563-.066406 11.167969-.195313-30.351562-1.035156-58.570312-6.359374-82.660156-16.457031-14.089844-5.90625-22.992188-19.972656-22.222656-35.230469zm0 0" fill="#d1d0cf"/><path d="m331.414062 171.007812c0 8.59375-6.96875 15.5625-15.5625 15.5625s-15.5625-6.96875-15.5625-15.5625c0-8.597656 6.96875-15.5625 15.5625-15.5625s15.5625 6.964844 15.5625 15.5625zm0 0" fill="#525468"/><path d="m211.875 171.007812c0 8.59375-6.96875 15.5625-15.5625 15.5625-8.597656 0-15.5625-6.96875-15.5625-15.5625 0-8.597656 6.964844-15.5625 15.5625-15.5625 8.59375 0 15.5625 6.964844 15.5625 15.5625zm0 0" fill="#525468"/><path d="m296.921875 42.601562c4.285156-10.574218 7.363281-19.808593 9.582031-27.660156-24.121094-7.664062-51.28125-9.101562-75.363281-5.730468-1.125 14.871093-2.851563 29.253906-2.851563 29.253906s-2.433593 27.414062-26.984374 47.140625c-1.503907 1.207031-.625 3.621093 1.300781 3.550781 8.609375-.304688 23.878906-1.308594 31.671875-4.589844 7.398437-3.117187 2.667968 7.363282-1.417969 14.878906-1.394531 2.558594 1.117187 5.476563 3.847656 4.460938 15.316407-5.703125 44.917969-23.53125 60.214844-61.304688zm0 0" fill="#d1d0cf"/><path d="m221.3125 85.605469c24.546875-19.730469 26.984375-47.140625 26.984375-47.140625s.761719-6.347656 1.601563-14.964844c.808593-8.300781 7.46875-15.242188 16.46875-15.710938-11.507813-.625-23.53125-.214843-35.226563 1.421876-1.125 14.871093-2.847656 29.253906-2.847656 29.253906s-2.4375 27.414062-26.984375 47.140625c-1.503906 1.207031-.628906 3.621093 1.296875 3.554687 4.769531-.171875 11.582031-.554687 18.035156-1.421875-.210937-.722656-.039063-1.5625.671875-2.132812zm0 0" fill="#afafaf"/><path d="m150.050781 37.082031c5.1875-.5 8.480469 5.417969 5.355469 9.59375-9.792969 13.085938-23.859375 39.125-23.859375 80.742188 0 63.832031 40.765625 285.386719-41.375 302.609375-73.289063 15.367187-94.566406-45.3125-74.46875-114.660156 17.011719-58.707032-4.421875-264.894532 134.347656-278.285157zm0 0" fill="#afafaf"/><path d="m35.707031 315.367188c16.382813-56.539063-2.882812-249.851563 119.613281-276.023438-1.167968-1.503906-3.042968-2.476562-5.269531-2.261719-138.769531 13.390625-117.335937 219.578125-134.347656 278.285157-19.03125 65.664062-.953125 123.546874 63.246094 116.460937-47.804688-6.089844-60.121094-58.214844-43.242188-116.460937zm0 0" fill="#9e9c9b"/><path d="m362.113281 37.082031c-5.1875-.5-8.480469 5.417969-5.355469 9.59375 9.792969 13.085938 23.863282 39.125 23.863282 80.742188 0 63.832031-40.769532 285.386719 41.371094 302.609375 73.289062 15.367187 94.566406-45.3125 74.46875-114.660156-17.011719-58.707032 4.421874-264.894532-134.347657-278.285157zm0 0" fill="#afafaf"/><path d="m441.996094 430.027344c-82.140625-17.222656-41.371094-238.777344-41.371094-302.609375 0-41.617188-14.066406-67.65625-23.859375-80.742188-1.785156-2.382812-1.472656-5.328125.082031-7.332031-4.699218-1.003906-9.605468-1.769531-14.734375-2.261719-5.191406-.5-8.480469 5.417969-5.355469 9.59375 9.792969 13.085938 23.863282 39.125 23.863282 80.742188 0 63.832031-40.769532 285.386719 41.371094 302.609375 11.730468 2.460937 22.121093 2.960937 31.230468 1.800781-3.601562-.398437-7.335937-.984375-11.226562-1.800781zm0 0" fill="#9e9c9b"/><path d="m289.484375 238.699219c-22.023437-15.902344-44.34375-16.21875-66.804687 0-2.730469 1.972656-3.011719 5.949219-.578126 8.277343 17.605469 16.835938 33.980469 19.84375 33.980469 19.84375s16.375-3.007812 33.980469-19.84375c2.433594-2.328124 2.152344-6.304687-.578125-8.277343zm0 0" fill="#525468"/><g fill="#3e4151"><path d="m325.855469 159.089844c-2.707031-2.273438-6.191407-3.644532-10.003907-3.644532-8.59375 0-15.5625 6.964844-15.5625 15.5625 0 8.59375 6.96875 15.5625 15.5625 15.5625 3.8125 0 7.296876-1.375 10.003907-3.648437-7.410157-6.230469-7.414063-17.597656 0-23.832031zm0 0"/><path d="m206.3125 159.089844c-2.703125-2.273438-6.191406-3.644532-10-3.644532-8.59375 0-15.5625 6.964844-15.5625 15.5625 0 8.59375 6.96875 15.5625 15.5625 15.5625 3.808594 0 7.296875-1.375 10-3.648437-7.40625-6.230469-7.414062-17.597656 0-23.832031zm0 0"/><path d="m242.105469 246.976562c-2.433594-2.328124-2.152344-6.304687.578125-8.273437 4.980468-3.597656 13.386718-8.703125 23.402344-10.960937-15.664063-3.539063-30.613282 1.722656-43.40625 10.960937-2.730469 1.96875-3.011719 5.949219-.578126 8.273437 17.605469 16.835938 33.980469 19.84375 33.980469 19.84375s3.929688-.726562 10.003907-3.4375c-6.332032-2.828124-14.992188-7.8125-23.980469-16.40625zm0 0"/></g><path d="m90.632812 437.539062c31.777344-6.664062 47.039063-38.605468 53.472657-80.40625 25.550781 13.921876 57.097656 21.996094 93.984375 24.007813 4.113281.230469 7.671875-2.945313 7.898437-7.082031.226563-4.136719-2.945312-7.675782-7.082031-7.898438-36.667969-2.003906-68.621094-10.675781-92.785156-25.152344 7.390625-75-8.152344-174.324218-8.152344-213.421874 0-52.800782 22.753906-74.578126 24.507812-80.496094 51.515626-42.792969 135.523438-42.804688 187.050782 0 2.132812 7.164062 24.511718 27.429687 24.511718 80.496094 0 39.042968-15.542968 138.4375-8.152343 213.421874-24.164063 14.472657-56.121094 23.148438-92.789063 25.148438-4.136718.226562-7.308594 3.761719-7.082031 7.902344.21875 3.996094 3.527344 7.089844 7.484375 7.089844.136719 0 .277344 0 .414062-.007813 36.890626-2.015625 68.433594-10.085937 93.988282-24.007813 6.433594 41.800782 21.695312 73.738282 53.472656 80.402344 78.207031 16.402344 105.285156-47.917968 83.214844-124.089844-3.640625-12.5625-5.507813-33.148437-7.664063-56.988281l-.078125-.839843c-.371094-4.128907-4.03125-7.167969-8.148437-6.796876-4.125.375-7.167969 4.023438-6.792969 8.148438l.074219.84375c2.230469 24.609375 4.15625 45.863281 8.195312 59.808594 18.511719 63.871094 1.460938 119.316406-65.722656 105.230468-75.328125-15.792968-34.023437-245.265624-35.484375-300.316406-.734375-27.824218-7.667969-55.089844-23.304688-77.453125 82.289063 10.074219 103.601563 94.492188 112.820313 177.035157.460937 4.113281 4.160156 7.085937 8.289063 6.621093 4.117187-.460937 7.085937-4.171875 6.625-8.289062-9.371094-83.851563-32.574219-181.300781-129.644532-190.667969-3.28125-.316406-6.417968.535156-8.96875 2.308594-55.394531-42.761719-142.109375-42.808594-197.566406 0-2.554688-1.777344-5.6875-2.625-8.96875-2.308594h-.003906c-53.5625 5.167969-87.230469 37.808594-106.90625 87.179688-27.738282 69.601562-23.839844 161.6875-33.925782 196.484374-22.125 76.363282 5.167969 140.460938 83.21875 124.09375zm-68.804687-119.917968c17.277344-59.617188-3.359375-256.855469 124.511719-272.535156-13.910156 19.878906-20.875 43.746093-22.796875 67.746093-4.449219 55.835938 41.316406 293.808594-35.988281 310.019531-66.925782 14.03125-84.339844-41-65.726563-105.230468zm0 0"/><path d="m256.003906 298.6875c22.652344 31.527344 72.46875 15.355469 72.46875-23.277344 0-4.140625-3.355468-7.5-7.5-7.5-4.144531 0-7.503906 3.359375-7.503906 7.5 0 13.777344-11.207031 24.984375-24.980469 24.984375-13.777343 0-24.984375-11.207031-24.984375-24.984375v-2.800781c7.015625-2.460937 19.128906-8.054687 31.664063-20.042969 5.820312-5.566406 5.15625-15.0625-1.371094-19.78125-23.761719-17.15625-49.660156-18.71875-75.589844 0-6.53125 4.71875-7.191406 14.214844-1.371093 19.785156 12.535156 11.984376 24.648437 17.578126 31.664062 20.039063v2.800781c0 13.777344-11.207031 24.984375-24.984375 24.984375-13.773437 0-24.980469-11.207031-24.980469-24.984375 0-4.140625-3.359375-7.5-7.503906-7.5s-7.503906 3.359375-7.503906 7.5c.003906 38.574219 49.800781 54.835938 72.476562 23.277344zm-26.898437-55.199219c18.433593-12.257812 35.417969-12.222656 53.792969 0-12.050782 10.859375-23.128907 14.707031-26.894532 15.773438-3.800781-1.078125-14.863281-4.929688-26.898437-15.773438zm0 0"/><path d="m292.707031 171.175781c0 12.714844 10.347657 23.0625 23.066407 23.0625s23.066406-10.347656 23.066406-23.0625c0-12.71875-10.347656-23.066406-23.066406-23.066406s-23.066407 10.347656-23.066407 23.066406zm23.066407-8.0625c4.445312 0 8.058593 3.617188 8.058593 8.0625 0 4.441407-3.613281 8.058594-8.058593 8.058594-4.445313 0-8.0625-3.617187-8.0625-8.058594 0-4.445312 3.617187-8.0625 8.0625-8.0625zm0 0"/><path d="m173.167969 171.175781c0 12.714844 10.347656 23.0625 23.066406 23.0625 12.714844 0 23.0625-10.347656 23.0625-23.0625 0-12.71875-10.347656-23.066406-23.0625-23.066406-12.71875 0-23.066406 10.347656-23.066406 23.066406zm23.066406-8.0625c4.441406 0 8.058594 3.617188 8.058594 8.0625 0 4.441407-3.613281 8.058594-8.058594 8.058594s-8.0625-3.617187-8.0625-8.058594c0-4.445312 3.617187-8.0625 8.0625-8.0625zm0 0"/><path d="m228.875 31.160156c-4.113281-.367187-7.769531 2.683594-8.136719 6.808594-.019531.242188-2.40625 24.433594-24.207031 41.957031-7.144531 5.738281-2.800781 17.253907 6.265625 16.898438 7.359375-.261719 16.472656-.894531 24.230469-2.359375-.257813.492187-.539063 1.015625-.835938 1.5625-2.148437 3.949218-1.636718 8.691406 1.304688 12.082031s7.554687 4.558594 11.75 2.996094c15.226562-5.671875 52.019531-23.472657 64.789062-66.183594 1.183594-3.972656-1.070312-8.152344-5.039062-9.339844-3.972656-1.183593-8.152344 1.070313-9.335938 5.039063-8.570312 28.65625-30.164062 44.210937-45.320312 51.886718 4.355468-12.765624-4.421875-18.320312-13.050782-14.6875-2.867187 1.207032-7.851562 2.226563-14.21875 2.953126 16.457032-19.421876 18.523438-40.425782 18.617188-41.476563.363281-4.125-2.683594-7.769531-6.8125-8.136719zm0 0"/></svg>